<svg width="256" height="249" viewBox="0 0 256 249" fill="none" xmlns="http://www.w3.org/2000/svg">
<path d="M214.018 68.5599L214.017 68.559C212.086 66.2726 210.815 64.2429 210.159 62.4967C209.503 60.7516 209.477 59.3344 209.96 58.2221C210.442 57.1132 211.473 56.2072 213.147 55.5738C214.824 54.939 217.106 54.5954 220 54.5954C231.103 54.5954 239.631 59.9827 245.546 69.1243C251.474 78.2861 254.774 91.2215 255.337 106.251C256.462 136.304 246.637 174.555 225.332 207.228L225.332 207.229C207.087 235.259 167.562 248.843 127.698 248.177C87.8397 247.511 47.887 232.6 28.8134 203.939C-8.56732 147.714 -5.81735 91.8755 21.4131 53.0476C48.6511 14.2092 100.451 -7.70853 161.377 4.06705L161.377 4.06714C180.039 7.65597 196.748 13.5436 206.162 20.0318C210.889 23.2895 213.654 26.6146 214.056 29.7748C214.448 32.8621 212.597 36.0411 207.426 39.083C200.377 43.169 194.996 44.957 189.349 44.3823C183.68 43.8054 177.659 40.8401 169.353 35.2002C152.016 23.2297 133.514 18.2594 114.971 20.6387C96.4313 23.0176 77.9033 32.7355 60.4915 50.0443C32.5893 77.7407 21.3173 106.417 22.5835 132.671C23.8496 158.921 37.6461 182.662 59.7084 200.497L59.7093 200.498C88.1809 223.399 129.052 232.281 168.269 212.466L168.27 212.465C192.456 200.166 211.211 172.923 220.272 144.453C229.326 116.004 228.765 86.1114 214.018 68.5599Z" fill="#BDD7FF" stroke="#3287E8"/>
<path d="M106.299 163.624L106.303 163.625L150.589 147.125L151.086 147.18C151.086 147.18 151.086 147.18 151.086 147.18C151.413 144.235 150.34 141.672 148.33 139.472C146.33 137.283 143.393 135.439 139.935 133.885C133.018 130.776 123.878 128.766 115.546 127.532C84.9271 122.924 71.4682 109.557 69.9159 96.112C68.3605 82.6393 78.7035 68.6932 96.5306 62.7848L96.5314 62.7845C102.081 60.9347 105.745 59.322 108.126 57.4959C110.545 55.6418 111.634 53.574 112.063 50.8905C112.366 49.0774 112.921 47.0557 113.604 45.2352C114.29 43.4063 115.088 41.8216 115.861 40.8555C117.591 38.7312 119.592 37.5976 121.604 37.2546C123.62 36.911 125.69 37.3539 127.565 38.4569C131.32 40.6652 134.276 45.5195 134.276 51.8366C134.276 53.5858 134.339 55.0015 134.564 56.1315C134.791 57.269 135.191 58.1634 135.897 58.8246C136.6 59.4821 137.548 59.8547 138.761 60.0686C139.972 60.2821 141.498 60.3458 143.401 60.3458C150.096 60.3458 157.312 62.2252 162.692 64.8391C165.383 66.1467 167.587 67.6243 169.033 69.1174C170.493 70.6233 171.099 72.0525 170.841 73.2984L170.841 73.2984L170.84 73.3062C170.446 75.3742 169.631 77.2686 167.212 78.6099C164.745 79.9776 160.553 80.8038 153.302 80.4996C148.725 79.8783 128.856 78.035 125.981 77.8297L125.977 77.8294C120.975 77.5135 116.068 79.106 112.084 81.736C108.103 84.3637 105.005 88.0526 103.653 91.9762C102.295 95.9184 102.703 100.104 105.758 103.609C108.79 107.087 114.37 109.825 123.207 111.066L123.213 111.066C126.559 111.492 130.068 111.812 133.551 112.129C135.942 112.347 138.321 112.564 140.627 112.813C146.322 113.429 151.608 114.246 155.756 115.763C185.869 126.879 184.321 168.964 153.307 179.303C149.495 180.539 146.93 181.802 145.326 183.46C143.693 185.149 143.107 187.192 143.107 189.84C143.107 201.813 137.184 208.985 131.12 210.403C128.093 211.111 124.988 210.407 122.455 208.125C119.913 205.835 117.909 201.918 117.2 196.146L117.2 196.14C116.839 193.461 116.408 191.486 115.697 189.96C114.975 188.41 113.974 187.343 112.523 186.461C111.094 185.593 109.227 184.904 106.783 184.094C106.088 183.864 105.345 183.623 104.55 183.365C102.526 182.71 100.159 181.943 97.3632 180.95C89.4384 178.087 84.0274 174.945 80.8712 172.018C77.6851 169.063 76.942 166.488 77.851 164.648C78.3171 163.705 79.2516 162.858 80.7056 162.198C82.1587 161.538 84.1002 161.078 86.5181 160.895C91.3535 160.529 98.0175 161.273 106.299 163.624Z" fill="#BDD7FF" stroke="#3287E8"/>
</svg>
